<?xml version="1.0" encoding="UTF-8" standalone="no"?>
<!DOCTYPE svg PUBLIC "-//W3C//DTD SVG 1.1//EN" "http://www.w3.org/Graphics/SVG/1.1/DTD/svg11.dtd">
<svg width="100%" height="100%" viewBox="0 0 1500 240" version="1.1" xmlns="http://www.w3.org/2000/svg" xmlns:xlink="http://www.w3.org/1999/xlink" xml:space="preserve" xmlns:serif="http://www.serif.com/" style="fill-rule:evenodd;clip-rule:evenodd;stroke-linejoin:round;stroke-miterlimit:2;">
    <g transform="matrix(1,0,0,1,-13198,-2721)">
        <g id="Employees" transform="matrix(0.926256,0,0,0.599621,973.275,1548.47)">
            <rect x="13198" y="1955.45" width="1619.42" height="400.253" style="fill:none;"/>
            <g transform="matrix(1.14734,0,0,1.77235,-1012.29,1004.51)">
                <g transform="matrix(194.05,0,0,194.05,12392,710)">
                    <path d="M0.444,0L0.659,0L0.52,-0.255C0.589,-0.296 0.631,-0.366 0.631,-0.452C0.631,-0.599 0.522,-0.7 0.371,-0.7L0.068,-0.7L0.068,0L0.261,0L0.261,-0.214L0.33,-0.214L0.444,0ZM0.261,-0.529L0.349,-0.529C0.403,-0.529 0.434,-0.497 0.434,-0.453C0.434,-0.409 0.403,-0.377 0.349,-0.377L0.261,-0.377L0.261,-0.529Z" style="fill:rgb(87,87,87);fill-rule:nonzero;"/>
                </g>
                <g transform="matrix(194.05,0,0,194.05,12523.2,710)">
                    <path d="M0.26,-0.167L0.26,-0.272L0.49,-0.272L0.49,-0.43L0.26,-0.43L0.26,-0.533L0.516,-0.533L0.516,-0.7L0.068,-0.7L0.068,0L0.524,0L0.524,-0.167L0.26,-0.167Z" style="fill:rgb(87,87,87);fill-rule:nonzero;"/>
                </g>
                <g transform="matrix(194.05,0,0,194.05,12633.2,710)">
                    <path d="M0.351,-0.7C0.351,-0.7 0.068,-0.7 0.068,-0.7L0.068,0L0.351,0C0.562,0 0.712,-0.146 0.712,-0.351C0.712,-0.555 0.563,-0.7 0.351,-0.7ZM0.342,-0.177C0.342,-0.177 0.261,-0.177 0.261,-0.177L0.261,-0.523L0.342,-0.523C0.446,-0.523 0.515,-0.454 0.515,-0.351C0.515,-0.247 0.446,-0.177 0.342,-0.177Z" style="fill:rgb(87,87,87);fill-rule:nonzero;"/>
                </g>
                <g transform="matrix(194.05,0,0,194.05,12773.5,710)">
                    <path d="M0.839,-0.7L0.728,-0.296L0.558,-0.697L0.491,-0.697L0.324,-0.297L0.211,-0.7L0.004,-0.7L0.223,0L0.393,0L0.524,-0.338L0.659,0L0.828,0L1.044,-0.7L0.839,-0.7Z" style="fill:rgb(187,60,91);fill-rule:nonzero;"/>
                </g>
                <g transform="matrix(194.05,0,0,194.05,12973,710)">
                    <path d="M0.417,0.018C0.641,0.018 0.801,-0.135 0.801,-0.35C0.801,-0.565 0.641,-0.718 0.417,-0.718C0.192,-0.718 0.031,-0.564 0.031,-0.35C0.031,-0.136 0.192,0.018 0.417,0.018L0.417,0.018ZM0.417,-0.162C0.31,-0.162 0.232,-0.241 0.232,-0.35C0.232,-0.459 0.31,-0.538 0.417,-0.538C0.523,-0.538 0.6,-0.46 0.6,-0.35C0.6,-0.24 0.523,-0.162 0.417,-0.162L0.417,-0.162Z" style="fill:rgb(87,87,87);fill-rule:nonzero;"/>
                </g>
                <g transform="matrix(194.05,0,0,194.05,13134.5,710)">
                    <path d="M0.417,0.018C0.641,0.018 0.801,-0.135 0.801,-0.35C0.801,-0.565 0.641,-0.718 0.417,-0.718C0.192,-0.718 0.031,-0.564 0.031,-0.35C0.031,-0.136 0.192,0.018 0.417,0.018L0.417,0.018ZM0.417,-0.162C0.31,-0.162 0.232,-0.241 0.232,-0.35C0.232,-0.459 0.31,-0.538 0.417,-0.538C0.523,-0.538 0.6,-0.46 0.6,-0.35C0.6,-0.24 0.523,-0.162 0.417,-0.162L0.417,-0.162Z" style="fill:rgb(87,87,87);fill-rule:nonzero;"/>
                </g>
                <g transform="matrix(194.05,0,0,194.05,13295.9,710)">
                    <path d="M0.351,-0.7C0.351,-0.7 0.068,-0.7 0.068,-0.7L0.068,0L0.351,0C0.562,0 0.712,-0.146 0.712,-0.351C0.712,-0.555 0.563,-0.7 0.351,-0.7ZM0.342,-0.177C0.342,-0.177 0.261,-0.177 0.261,-0.177L0.261,-0.523L0.342,-0.523C0.446,-0.523 0.515,-0.454 0.515,-0.351C0.515,-0.247 0.446,-0.177 0.342,-0.177Z" style="fill:rgb(87,87,87);fill-rule:nonzero;"/>
                </g>
                <path d="M13517.5,657.989C13511.5,657.989 13506.1,660.06 13502,663.641L13499.8,659.64L13488,659.64L13488,728.186L13505.2,728.186L13505.2,708.36C13508.7,710.506 13512.9,711.704 13517.5,711.704C13532.9,711.704 13543.9,700.51 13543.9,684.82C13543.9,669.13 13532.9,657.989 13517.5,657.989L13517.5,657.989ZM13515.1,696.344C13508.6,696.344 13503.9,691.435 13503.9,684.819C13503.9,678.203 13508.6,673.294 13515.1,673.294C13521.6,673.294 13526.4,678.203 13526.4,684.819C13526.4,691.435 13521.6,696.344 13515.1,696.344Z" style="fill:url(#_Linear1);fill-rule:nonzero;"/>
                <path d="M13577.1,711.651C13593.5,711.651 13605.4,700.378 13605.4,684.82C13605.4,669.209 13593.5,657.99 13577.1,657.99C13560.7,657.99 13548.9,669.209 13548.9,684.82C13548.9,700.378 13560.7,711.651 13577.1,711.651ZM13577.1,696.068C13570.8,696.068 13566.3,691.479 13566.3,684.821C13566.3,678.163 13570.8,673.574 13577.1,673.574C13583.5,673.574 13588,678.203 13588,684.822C13588,691.48 13583.5,696.069 13577.1,696.069L13577.1,696.068Z" style="fill:url(#_Linear2);fill-rule:nonzero;"/>
                <path d="M13641.6,659.4C13635.6,659.4 13631.3,661.121 13627.7,665.229L13625,659.64L13613.4,659.64L13613.4,710L13630.7,710L13630.7,684.391C13630.7,677.967 13633.3,675.274 13639.4,675.274L13646.2,675.274L13646.2,659.4L13641.6,659.4Z" style="fill:url(#_Linear3);fill-rule:nonzero;"/>
                <path d="M13680.9,694.807C13677.2,694.807 13675,692.631 13675,689.025L13675,672.998L13687.3,672.998L13687.3,659.64L13674.6,659.64L13674.6,644.916L13671,644.916L13648.5,668.944L13648.5,672.998L13657.7,672.998L13657.7,692.001C13657.7,703.192 13664.5,710 13675.6,710L13687.5,710L13687.5,694.807L13680.9,694.807Z" style="fill:url(#_Linear4);fill-rule:nonzero;"/>
                <path d="M13735.8,659.586L13734.1,663.48C13729.9,660.049 13724.6,658.069 13718.7,658.069C13703.3,658.069 13692.3,669.169 13692.3,684.766C13692.3,700.417 13703.3,711.651 13718.7,711.651C13724.5,711.651 13729.8,709.726 13733.9,706.385L13735.4,709.947L13748.8,709.947L13748.8,659.587L13735.8,659.586ZM13721,696.292C13714.5,696.292 13709.7,691.383 13709.7,684.806C13709.7,678.27 13714.5,673.36 13721,673.36C13727.5,673.36 13732.3,678.27 13732.3,684.806C13732.3,691.383 13727.5,696.292 13721,696.292L13721,696.292Z" style="fill:url(#_Linear5);fill-rule:nonzero;"/>
                <rect x="13759.7" y="641.455" width="17.346" height="68.545" style="fill:url(#_Linear6);fill-rule:nonzero;"/>
            </g>
        </g>
    </g>
    <defs>
        <linearGradient id="_Linear1" x1="0" y1="0" x2="1" y2="0" gradientUnits="userSpaceOnUse" gradientTransform="matrix(299.921,0,0,174.645,13482.6,656.636)"><stop offset="0" style="stop-color:rgb(246,79,119);stop-opacity:1"/><stop offset="1" style="stop-color:rgb(187,60,91);stop-opacity:1"/></linearGradient>
        <linearGradient id="_Linear2" x1="0" y1="0" x2="1" y2="0" gradientUnits="userSpaceOnUse" gradientTransform="matrix(299.921,0,0,174.645,13482.6,656.636)"><stop offset="0" style="stop-color:rgb(246,79,119);stop-opacity:1"/><stop offset="1" style="stop-color:rgb(187,60,91);stop-opacity:1"/></linearGradient>
        <linearGradient id="_Linear3" x1="0" y1="0" x2="1" y2="0" gradientUnits="userSpaceOnUse" gradientTransform="matrix(299.921,0,0,174.645,13482.6,656.636)"><stop offset="0" style="stop-color:rgb(246,79,119);stop-opacity:1"/><stop offset="1" style="stop-color:rgb(187,60,91);stop-opacity:1"/></linearGradient>
        <linearGradient id="_Linear4" x1="0" y1="0" x2="1" y2="0" gradientUnits="userSpaceOnUse" gradientTransform="matrix(299.921,0,0,174.645,13482.6,656.636)"><stop offset="0" style="stop-color:rgb(246,79,119);stop-opacity:1"/><stop offset="1" style="stop-color:rgb(187,60,91);stop-opacity:1"/></linearGradient>
        <linearGradient id="_Linear5" x1="0" y1="0" x2="1" y2="0" gradientUnits="userSpaceOnUse" gradientTransform="matrix(299.921,0,0,174.645,13482.6,656.636)"><stop offset="0" style="stop-color:rgb(246,79,119);stop-opacity:1"/><stop offset="1" style="stop-color:rgb(187,60,91);stop-opacity:1"/></linearGradient>
        <linearGradient id="_Linear6" x1="0" y1="0" x2="1" y2="0" gradientUnits="userSpaceOnUse" gradientTransform="matrix(299.921,0,0,174.645,13482.6,656.636)"><stop offset="0" style="stop-color:rgb(246,79,119);stop-opacity:1"/><stop offset="1" style="stop-color:rgb(187,60,91);stop-opacity:1"/></linearGradient>
    </defs>
</svg>
