<?xml version="1.0" encoding="UTF-8" standalone="no"?><!DOCTYPE svg PUBLIC "-//W3C//DTD SVG 1.1//EN" "http://www.w3.org/Graphics/SVG/1.1/DTD/svg11.dtd"><svg width="100%" height="100%" viewBox="0 0 100 100" version="1.1" xmlns="http://www.w3.org/2000/svg" xmlns:xlink="http://www.w3.org/1999/xlink" xml:space="preserve" xmlns:serif="http://www.serif.com/" style="fill-rule:evenodd;clip-rule:evenodd;stroke-linejoin:round;stroke-miterlimit:2;"><rect id="active_marketing" x="0" y="0" width="100" height="100" style="fill:none;"/><path id="megaphone" d="M90.131,33.503c-8.801,-20.48 -22.958,-36.059 -30.12,-33.154c-12.162,4.951 7.245,28.692 -52.488,52.967c-5.162,2.106 -6.468,10.49 -4.306,15.513c2.155,5.011 9.212,10.006 14.373,7.911c0.895,-0.366 4.173,-1.422 4.173,-1.422c3.684,4.951 7.54,2.017 8.912,5.156c1.645,3.778 5.217,11.99 6.434,14.779c1.217,2.79 3.973,5.373 5.973,4.612c1.994,-0.761 8.79,-3.345 11.39,-4.328c2.6,-0.984 3.217,-3.312 2.422,-5.134c-0.855,-1.972 -4.367,-2.55 -5.373,-4.851c-1,-2.289 -4.272,-9.656 -5.211,-11.978c-1.278,-3.156 1.439,-5.729 5.389,-6.134c27.192,-2.845 32.276,13.957 41.532,10.189c7.151,-2.916 5.695,-23.663 -3.1,-44.126Zm-3.062,33.203c-1.594,0.639 -12.295,-7.79 -19.129,-23.708c-6.84,-15.907 -5.979,-30.447 -4.39,-31.097c1.59,-0.639 12.029,9.54 18.863,25.447c6.834,15.907 6.246,28.708 4.656,29.358Z" style="fill:#5d5d5d;fill-rule:nonzero;"/></svg>