<?xml version="1.0" encoding="UTF-8" standalone="no"?><!DOCTYPE svg PUBLIC "-//W3C//DTD SVG 1.1//EN" "http://www.w3.org/Graphics/SVG/1.1/DTD/svg11.dtd"><svg width="100%" height="100%" viewBox="0 0 100 100" version="1.1" xmlns="http://www.w3.org/2000/svg" xmlns:xlink="http://www.w3.org/1999/xlink" xml:space="preserve" xmlns:serif="http://www.serif.com/" style="fill-rule:evenodd;clip-rule:evenodd;stroke-linejoin:round;stroke-miterlimit:2;"><rect id="advert_creation" x="0" y="0" width="100" height="100" style="fill:none;"/><path id="newspaper" d="M85.282,45.589l-70.564,0l0,-13.23l70.564,0m0,30.872l-30.872,0l0,-8.82l30.872,0m0,26.461l-30.872,0l0,-8.82l30.872,0m-39.693,8.82l-30.871,0l-0.001,-26.461l30.872,0m41.162,-36.751l-7.348,-7.353l-7.352,7.353l-7.352,-7.353l-7.347,7.353l-7.352,-7.353l-7.352,7.353l-7.348,-7.353l-7.352,7.353l-7.352,-7.353l-7.347,7.353l-7.352,-7.353l0,70.565c0,4.869 3.947,8.821 8.821,8.821l70.564,0c4.869,0 8.777,-3.952 8.777,-8.821l0.044,-70.565l-7.352,7.353Z" style="fill:#5d5d5d;fill-rule:nonzero;"/></svg>