<?xml version="1.0" encoding="UTF-8" standalone="no"?><!DOCTYPE svg PUBLIC "-//W3C//DTD SVG 1.1//EN" "http://www.w3.org/Graphics/SVG/1.1/DTD/svg11.dtd"><svg width="100%" height="100%" viewBox="0 0 100 100" version="1.1" xmlns="http://www.w3.org/2000/svg" xmlns:xlink="http://www.w3.org/1999/xlink" xml:space="preserve" xmlns:serif="http://www.serif.com/" style="fill-rule:evenodd;clip-rule:evenodd;stroke-linejoin:round;stroke-miterlimit:2;"><rect id="advice" x="0" y="0" width="100" height="100" style="fill:none;"/><g id="advice1" serif:id="advice"><path id="handshake-o" d="M8.331,57.307c3.647,0 3.647,-5.556 0,-5.556c-3.648,0 -3.648,5.556 0,5.556Zm63.935,-2.517c-3.428,-4.469 -6.773,-9.028 -10.678,-13.109l-5.425,6.078c-4.775,5.426 -13.326,5.295 -17.97,-0.261c-3.3,-3.991 -3.3,-9.722 0.086,-13.672l7.683,-8.942c-2.691,-1.389 -5.947,-0.911 -8.853,-0.911c-2.561,0 -5.036,1.041 -6.858,2.864l-6.859,6.858l-6.728,0l0,23.612c1.912,0 3.645,-0.261 5.164,1.217l12.892,12.672c2.648,2.561 6.076,4.817 9.853,4.817c1.953,0 4.037,-0.65 5.426,-2.039c3.255,1.128 7.03,-0.694 8.03,-4.036c2.084,0.175 3.992,-0.478 5.512,-1.911c0.997,-0.911 2.3,-2.734 2.169,-4.167c0.392,0.392 1.345,0.433 1.867,0.433c5.164,0 7.856,-5.425 4.686,-9.506l0.003,0.003Zm6.9,2.517l4.167,0l0,-22.223l-4.036,0l-6.814,-7.811c-1.823,-2.084 -4.559,-3.3 -7.337,-3.3l-7.247,0c-2.431,0 -4.775,1.086 -6.336,2.908l-9.073,10.548c-1.606,1.911 -1.606,4.6 -0.044,6.511c2.475,2.95 7.03,2.994 9.592,0.13l8.378,-9.461c1.997,-2.214 5.641,-0.131 4.73,2.692c1.65,1.911 3.428,3.775 5.037,5.686c2.169,2.692 4.252,5.511 6.38,8.248c1.345,1.736 2.345,3.819 2.606,6.077l-0.003,-0.005Zm12.5,0c3.648,0 3.648,-5.556 0,-5.556c-3.647,0 -3.647,5.556 0,5.556Zm8.334,-25.001l0,27.779c0,1.519 -1.258,2.778 -2.778,2.778l-18.836,0c-1.562,3.775 -4.992,6.294 -8.984,6.858c-1.867,2.734 -4.731,4.817 -7.942,5.511c-2.386,3.039 -6.25,4.862 -10.114,4.601c-7.161,4.036 -15.234,0.519 -20.573,-4.731l-12.456,-12.239l-15.539,0c-1.52,0 -2.778,-1.259 -2.778,-2.778l0,-29.168c0,-1.519 1.258,-2.778 2.778,-2.778l18.273,0c5.036,-5.036 8.505,-9.722 16.058,-9.722l5.078,0c2.823,0 5.556,0.869 7.856,2.431c2.3,-1.562 5.036,-2.431 7.856,-2.431l7.247,0c8.248,0 11.676,5.381 16.667,11.111l15.409,0c1.52,0 2.778,1.259 2.778,2.778Z" style="fill:#5d5d5d;fill-rule:nonzero;"/></g></svg>