<?xml version="1.0" encoding="UTF-8" standalone="no"?><!DOCTYPE svg PUBLIC "-//W3C//DTD SVG 1.1//EN" "http://www.w3.org/Graphics/SVG/1.1/DTD/svg11.dtd"><svg width="100%" height="100%" viewBox="0 0 100 100" version="1.1" xmlns="http://www.w3.org/2000/svg" xmlns:xlink="http://www.w3.org/1999/xlink" xml:space="preserve" xmlns:serif="http://www.serif.com/" style="fill-rule:evenodd;clip-rule:evenodd;stroke-linejoin:round;stroke-miterlimit:2;"><rect id="awards" x="0" y="0" width="100" height="100" style="fill:none;"/><clipPath id="_clip1"><rect x="0" y="0" width="100" height="100"/></clipPath><g clip-path="url(#_clip1)"><path id="trophy" d="M56.413,73.67c0,-7.886 5.978,-12.249 15.727,-18.706c11.923,-7.912 26.77,-17.743 26.77,-41.084c0,-2.103 -1.722,-3.799 -3.853,-3.799l-18.64,0c-2.63,-4.869 -10.483,-10.081 -26.417,-10.081c-15.945,0 -23.787,5.212 -26.422,10.081l-18.646,0c-2.125,0 -3.842,1.701 -3.842,3.799c0,23.341 14.836,33.172 26.77,41.079c9.749,6.456 15.727,10.82 15.727,18.705l0,7.125c-10.238,1.136 -17.765,4.924 -17.765,9.434c0,5.402 10.825,9.777 24.178,9.777c13.353,0 24.178,-4.375 24.178,-9.777c0,-4.51 -7.527,-8.298 -17.765,-9.434l0,-7.119Zm15.091,-27.477c3.076,-6.516 5.522,-15.358 5.913,-28.509l13.641,0c-1.305,14.678 -10.119,22.086 -19.554,28.509Zm-21.504,-39.53c14.847,-0.011 20.646,6.059 20.64,8.309c0,2.272 -5.793,8.331 -20.64,8.342c-14.847,-0.005 -20.646,-6.065 -20.646,-8.337c-0.005,-2.249 5.799,-8.325 20.646,-8.314Zm-41.058,11.021l13.636,0c0.396,13.151 2.831,21.993 5.918,28.509c-9.435,-6.423 -18.255,-13.831 -19.554,-28.509Z" style="fill:#5d5d5d;fill-rule:nonzero;"/></g></svg>