<?xml version="1.0" encoding="UTF-8" standalone="no"?><!DOCTYPE svg PUBLIC "-//W3C//DTD SVG 1.1//EN" "http://www.w3.org/Graphics/SVG/1.1/DTD/svg11.dtd"><svg width="100%" height="100%" viewBox="0 0 101 100" version="1.1" xmlns="http://www.w3.org/2000/svg" xmlns:xlink="http://www.w3.org/1999/xlink" xml:space="preserve" xmlns:serif="http://www.serif.com/" style="fill-rule:evenodd;clip-rule:evenodd;stroke-linejoin:round;stroke-miterlimit:2;"><rect id="awards_red" x="0.038" y="0" width="100" height="100" style="fill:none;"/><clipPath id="_clip1"><rect x="0.038" y="0" width="100" height="100"/></clipPath><g clip-path="url(#_clip1)"><path id="trophy" d="M56.45,73.67c0,-7.885 5.978,-12.249 15.728,-18.705c11.923,-7.913 26.77,-17.744 26.77,-41.085c0,-2.103 -1.723,-3.799 -3.853,-3.799l-18.64,0c-2.63,-4.869 -10.483,-10.081 -26.417,-10.081c-15.945,0 -23.787,5.212 -26.423,10.081l-18.645,0c-2.125,0 -3.843,1.701 -3.843,3.799c0,23.341 14.837,33.172 26.771,41.079c9.749,6.457 15.727,10.82 15.727,18.706l0,7.125c-10.238,1.135 -17.765,4.923 -17.765,9.434c0,5.402 10.825,9.776 24.178,9.776c13.352,0 24.178,-4.374 24.178,-9.776c0,-4.511 -7.527,-8.299 -17.766,-9.434l0,-7.12Zm15.092,-27.476c3.076,-6.516 5.521,-15.358 5.913,-28.51l13.64,0c-1.304,14.679 -10.119,22.086 -19.553,28.51Zm-21.504,-39.531c14.847,-0.011 20.645,6.06 20.64,8.309c0,2.272 -5.793,8.332 -20.64,8.342c-14.847,-0.005 -20.646,-6.064 -20.646,-8.336c-0.005,-2.25 5.799,-8.326 20.646,-8.315Zm-41.058,11.021l13.635,0c0.397,13.152 2.832,21.994 5.919,28.51c-9.435,-6.424 -18.255,-13.831 -19.554,-28.51Z" style="fill:url(#_Linear2);fill-rule:nonzero;"/></g><defs><linearGradient id="_Linear2" x1="0" y1="0" x2="1" y2="0" gradientUnits="userSpaceOnUse" gradientTransform="matrix(97.8208,0,0,100,1.12739,50.0005)"><stop offset="0" style="stop-color:#ff7f00;stop-opacity:1"/><stop offset="1" style="stop-color:#ffb350;stop-opacity:1"/></linearGradient></defs></svg>