<?xml version="1.0" encoding="UTF-8" standalone="no"?><!DOCTYPE svg PUBLIC "-//W3C//DTD SVG 1.1//EN" "http://www.w3.org/Graphics/SVG/1.1/DTD/svg11.dtd"><svg width="100%" height="100%" viewBox="0 0 101 100" version="1.1" xmlns="http://www.w3.org/2000/svg" xmlns:xlink="http://www.w3.org/1999/xlink" xml:space="preserve" xmlns:serif="http://www.serif.com/" style="fill-rule:evenodd;clip-rule:evenodd;stroke-linejoin:round;stroke-miterlimit:2;"><rect id="branding" x="0.214" y="0" width="100" height="100" style="fill:none;"/><path id="fingerprint" d="M48.79,4.113c-15.42,0.275 -25.359,7.22 -25.359,7.22c-1.289,0.887 -1.614,2.65 -0.727,3.938c0.887,1.288 2.65,1.614 4.027,0.663c0,0 19.53,-14.461 47.542,0.204c1.359,0.775 3.088,0.302 3.864,-1.056c0.775,-1.358 0.302,-3.088 -1.245,-3.961c-7.597,-3.978 -14.737,-5.946 -21.174,-6.672c-2.413,-0.273 -4.725,-0.376 -6.928,-0.336Zm1.752,11.839c-26.965,-0.349 -39.915,21.316 -39.915,21.316c-0.86,1.306 -0.498,3.062 0.809,3.922c1.306,0.859 3.062,0.498 4.058,-1.038c0,0 11.038,-18.846 34.977,-18.537c24.023,0.308 34.527,18.369 34.527,18.369c0.796,1.347 2.533,1.792 3.88,0.995c1.346,-0.796 1.792,-2.533 0.995,-3.879c0,0 -12.449,-20.803 -39.331,-21.148Zm-3.221,11.228c-7.639,0.54 -14.91,3.313 -20.413,7.875c-10.771,8.932 -17.687,25.308 -10.096,47.322c0.511,1.478 2.123,2.262 3.601,1.751c1.479,-0.51 2.263,-2.122 1.752,-3.601c-6.984,-20.253 -0.787,-33.523 8.362,-41.109c8.914,-7.392 24.677,-9.267 36.42,-1.894c5.771,3.623 10.239,9.845 12.529,16.016c2.29,6.171 2.17,12.126 0.319,14.945c-1.935,2.946 -5.774,4.062 -9.176,3.194c-3.402,-0.868 -6.174,-3.309 -6.273,-8.504c-0.149,-7.707 -6.241,-12.544 -12.424,-13.263c-6.182,-0.719 -13.173,2.524 -15.015,9.707c-3.417,13.322 5.211,32.131 25.262,38.357c1.495,0.464 3.084,-0.372 3.548,-1.867c0.464,-1.495 -0.372,-3.084 -1.867,-3.548c-17.369,-5.394 -23.948,-21.827 -21.457,-31.536c1.111,-4.332 4.925,-5.954 8.875,-5.495c3.949,0.459 7.32,2.837 7.415,7.761c0.142,7.437 5.013,12.464 10.538,13.874c5.525,1.41 11.898,-0.381 15.308,-5.575c3.493,-5.32 2.939,-12.785 0.256,-20.015c-2.682,-7.229 -7.729,-14.394 -14.821,-18.847c-6.99,-4.388 -15.003,-6.087 -22.643,-5.548Zm1.593,11.025l0,0.01c-8.059,0.285 -16.109,4.452 -20.758,13.245c-5.973,11.296 -3.261,22.804 0.761,31.102c4.021,8.299 9.476,13.857 9.476,13.857c1.095,1.119 2.889,1.139 4.008,0.044c1.119,-1.094 1.139,-2.889 0.045,-4.008c0,0 -4.864,-4.978 -8.442,-12.361c-3.578,-7.384 -5.747,-16.699 -0.84,-25.979c5.018,-9.49 14.041,-11.812 22.112,-9.477c8.071,2.336 14.798,9.363 14.582,19.75c-0.114,1.56 1.057,2.917 2.617,3.032c1.56,0.114 2.917,-1.058 3.037,-2.926c0.27,-12.934 -8.403,-22.338 -18.661,-25.306c-2.565,-0.742 -5.251,-1.078 -7.937,-0.983Zm1,22.643c-1.561,0.044 -2.791,1.342 -2.752,2.903c0,0 0.021,6.711 3.814,13.184c3.792,6.472 11.867,12.635 25.899,11.317c1.561,-0.094 2.751,-1.435 2.657,-2.996c-0.093,-1.562 -1.435,-2.751 -3.179,-2.641c-12.32,1.158 -17.561,-3.534 -20.493,-8.538c-2.932,-5.003 -3.035,-10.388 -3.035,-10.388c0.005,-1.564 -1.258,-2.836 -2.911,-2.841Z" style="fill:#5d5d5d;fill-rule:nonzero;"/></svg>