<?xml version="1.0" encoding="UTF-8" standalone="no"?><!DOCTYPE svg PUBLIC "-//W3C//DTD SVG 1.1//EN" "http://www.w3.org/Graphics/SVG/1.1/DTD/svg11.dtd"><svg width="100%" height="100%" viewBox="0 0 100 100" version="1.1" xmlns="http://www.w3.org/2000/svg" xmlns:xlink="http://www.w3.org/1999/xlink" xml:space="preserve" xmlns:serif="http://www.serif.com/" style="fill-rule:evenodd;clip-rule:evenodd;stroke-linejoin:round;stroke-miterlimit:2;"><rect id="calendar" x="0" y="0" width="100" height="100" style="fill:none;"/><clipPath id="_clip1"><rect id="calendar1" serif:id="calendar" x="0" y="0" width="100" height="100"/></clipPath><g clip-path="url(#_clip1)"><path id="calendar2" serif:id="calendar" d="M10.714,92.81l16.072,0l0,-16.071l-16.072,0l0,16.071Zm19.643,0l17.857,0l0,-16.071l-17.857,0l0,16.071Zm-19.643,-19.643l16.072,0l0,-17.857l-16.072,0l0,17.857Zm19.643,0l17.857,0l0,-17.857l-17.857,0l0,17.857Zm-19.643,-21.428l16.072,0l0,-16.072l-16.072,0l0,16.072Zm41.072,41.071l17.857,0l0,-16.071l-17.857,0l0,16.071Zm-21.429,-41.071l17.857,0l0,-16.072l-17.857,0l0,16.072Zm42.857,41.071l16.072,0l0,-16.071l-16.072,0l0,16.071Zm-21.428,-19.643l17.857,0l0,-17.857l-17.857,0l0,17.857Zm-19.643,-48.214l0,-16.071c0,-0.95 -0.836,-1.786 -1.786,-1.786l-3.571,0c-0.95,0 -1.786,0.836 -1.786,1.786l0,16.071c0,0.95 0.836,1.786 1.786,1.786l3.571,0c0.95,0 1.786,-0.836 1.786,-1.786Zm41.071,48.214l16.072,0l0,-17.857l-16.072,0l0,17.857Zm-21.428,-21.428l17.857,0l0,-16.072l-17.857,0l0,16.072Zm21.428,0l16.072,0l0,-16.072l-16.072,0l0,16.072Zm1.786,-26.786l0,-16.071c0,-0.95 -0.836,-1.786 -1.786,-1.786l-3.571,0c-0.95,0 -1.786,0.836 -1.786,1.786l0,16.071c0,0.95 0.836,1.786 1.786,1.786l3.571,0c0.95,0 1.786,-0.836 1.786,-1.786Zm21.429,-3.571l0,71.428c0,3.907 -3.236,7.143 -7.143,7.143l-78.572,0c-3.907,0 -7.143,-3.236 -7.143,-7.143l0,-71.428c0,-3.907 3.236,-7.143 7.143,-7.143l7.143,0l0,-5.357c0,-4.911 4.018,-8.929 8.929,-8.929l3.571,0c4.911,0 8.929,4.018 8.929,8.929l0,5.357l21.428,0l0,-5.357c0,-4.911 4.018,-8.929 8.929,-8.929l3.571,0c4.911,0 8.929,4.018 8.929,8.929l0,5.357l7.143,0c3.907,0 7.143,3.236 7.143,7.143Z" style="fill:#5d5d5d;fill-rule:nonzero;"/></g></svg>