<?xml version="1.0" encoding="UTF-8" standalone="no"?><!DOCTYPE svg PUBLIC "-//W3C//DTD SVG 1.1//EN" "http://www.w3.org/Graphics/SVG/1.1/DTD/svg11.dtd"><svg width="100%" height="100%" viewBox="0 0 101 100" version="1.1" xmlns="http://www.w3.org/2000/svg" xmlns:xlink="http://www.w3.org/1999/xlink" xml:space="preserve" xmlns:serif="http://www.serif.com/" style="fill-rule:evenodd;clip-rule:evenodd;stroke-linejoin:round;stroke-miterlimit:2;"><rect id="facebook_social" x="0.946" y="0" width="100" height="100" style="fill:none;"/><circle cx="50.946" cy="50" r="50" style="fill:#bb3c5b;"/><path id="facebook-box" d="M33.64,27.221l34.612,0c2.73,0 4.944,2.214 4.944,4.944l0,34.612c0,2.73 -2.214,4.944 -4.944,4.944l-34.612,0c-2.73,0 -4.944,-2.214 -4.944,-4.944l0,-34.612c0,-2.73 2.214,-4.944 4.944,-4.944Zm32.138,4.94l-6.181,0c-4.779,0 -8.653,3.871 -8.653,8.653l0,6.18l-4.944,0l0,7.417l4.944,0l0,17.305l7.417,0l0,-17.305l7.417,0l0,-7.417l-7.417,0l0,-4.944c0,-1.368 1.108,-2.473 2.472,-2.473l4.945,0l0,-7.416Z" style="fill:#fff;fill-rule:nonzero;"/></svg>