<?xml version="1.0" encoding="UTF-8" standalone="no"?><!DOCTYPE svg PUBLIC "-//W3C//DTD SVG 1.1//EN" "http://www.w3.org/Graphics/SVG/1.1/DTD/svg11.dtd"><svg width="100%" height="100%" viewBox="0 0 100 100" version="1.1" xmlns="http://www.w3.org/2000/svg" xmlns:xlink="http://www.w3.org/1999/xlink" xml:space="preserve" xmlns:serif="http://www.serif.com/" style="fill-rule:evenodd;clip-rule:evenodd;stroke-linejoin:round;stroke-miterlimit:2;"><rect id="facebook_social_white" x="0" y="0" width="100" height="100" style="fill:none;"/><clipPath id="_clip1"><rect x="0" y="0" width="100" height="100"/></clipPath><g clip-path="url(#_clip1)"><path id="facebook-box" d="M11.522,0l76.956,0c6.071,0 10.993,4.922 10.993,10.994l0,76.955c0,6.071 -4.922,10.993 -10.993,10.993l-76.956,0c-6.071,0 -10.993,-4.922 -10.993,-10.993l0,-76.955c0,-6.072 4.922,-10.994 10.993,-10.994Zm71.455,10.983l-13.742,0c-10.625,0 -19.238,8.608 -19.238,19.239l0,13.742l-10.994,0l0,16.49l10.994,0l0,38.478l16.49,0l0,-38.478l16.49,0l0,-16.49l-16.49,0l0,-10.994c0,-3.04 2.463,-5.497 5.497,-5.497l10.993,0l0,-16.49Z" style="fill:#fff;fill-rule:nonzero;"/></g></svg>