<?xml version="1.0" encoding="UTF-8" standalone="no"?>
<!DOCTYPE svg PUBLIC "-//W3C//DTD SVG 1.1//EN" "http://www.w3.org/Graphics/SVG/1.1/DTD/svg11.dtd">
<svg width="100%" height="100%" viewBox="0 0 100 100" version="1.1" xmlns="http://www.w3.org/2000/svg" xmlns:xlink="http://www.w3.org/1999/xlink" xml:space="preserve" xmlns:serif="http://www.serif.com/" style="fill-rule:evenodd;clip-rule:evenodd;stroke-linejoin:round;stroke-miterlimit:2;">
    <g transform="matrix(1,0,0,1,-439.214,-395)">
        <g id="Good-Value" serif:id="Good Value" transform="matrix(0.125,0,0,0.166667,439.214,395)">
            <rect x="0" y="0" width="800" height="600" style="fill:none;"/>
            <clipPath id="_clip1">
                <rect x="0" y="0" width="800" height="600"/>
            </clipPath>
            <g clip-path="url(#_clip1)">
                <g transform="matrix(10.2651,0,0,7.74142,-892.545,-3404.47)">
                    <path d="M122.926,472.8L138.417,472.8L138.417,485.018L124.715,485.018C124.545,487.915 124.016,490.523 123.13,492.84C122.415,494.613 121.222,496.453 119.552,498.362C121.46,497.919 123.096,497.697 124.46,497.697C126.198,497.697 128.464,498.038 131.259,498.72C135.076,499.606 138.127,500.049 140.41,500.049C142.285,500.049 143.913,499.887 145.293,499.563C146.673,499.24 148.488,498.566 150.738,497.544L157.691,512.779C154.316,514.483 151.351,515.659 148.795,516.307C146.239,516.954 143.495,517.278 140.564,517.278C137.36,517.278 133.696,516.716 129.572,515.591C124.153,514.091 120.796,513.222 119.5,512.984C118.205,512.745 116.808,512.626 115.308,512.626C110.911,512.626 106.055,514.177 100.738,517.278L94.143,502.759C101.3,497.612 104.879,492.466 104.879,487.319C104.879,487.046 104.845,486.279 104.777,485.018L94.143,485.018L94.143,472.8L101.76,472.8C100.465,468.301 99.732,465.693 99.562,464.978C99.357,463.887 99.255,462.541 99.255,460.939C99.255,456.678 100.388,452.852 102.655,449.461C104.921,446.07 107.904,443.607 111.602,442.074C115.3,440.54 120.284,439.773 126.556,439.773C132.418,439.773 137.062,440.429 140.487,441.741C143.913,443.054 146.81,445.235 149.178,448.285C151.547,451.336 153.175,455.025 154.061,459.354L134.531,462.421C133.543,458.774 132.409,456.354 131.131,455.162C129.853,453.969 128.396,453.372 126.76,453.372C124.783,453.372 123.181,454.02 121.954,455.315C120.727,456.61 120.114,458.451 120.114,460.836C120.114,462.097 120.233,463.316 120.472,464.492C120.71,465.668 121.528,468.437 122.926,472.8Z" style="fill:url(#_Linear2);fill-rule:nonzero;"/>
                </g>
            </g>
        </g>
    </g>
    <defs>
        <linearGradient id="_Linear2" x1="0" y1="0" x2="1" y2="0" gradientUnits="userSpaceOnUse" gradientTransform="matrix(69.8364,0,0,147.648,88.3655,474.589)"><stop offset="0" style="stop-color:rgb(255,127,0);stop-opacity:1"/><stop offset="1" style="stop-color:rgb(255,179,80);stop-opacity:1"/></linearGradient>
    </defs>
</svg>
