<?xml version="1.0" encoding="UTF-8" standalone="no"?><!DOCTYPE svg PUBLIC "-//W3C//DTD SVG 1.1//EN" "http://www.w3.org/Graphics/SVG/1.1/DTD/svg11.dtd"><svg width="100%" height="100%" viewBox="0 0 100 100" version="1.1" xmlns="http://www.w3.org/2000/svg" xmlns:xlink="http://www.w3.org/1999/xlink" xml:space="preserve" xmlns:serif="http://www.serif.com/" style="fill-rule:evenodd;clip-rule:evenodd;stroke-linejoin:round;stroke-miterlimit:2;"><rect id="ideas" x="0" y="0" width="100" height="100" style="fill:none;"/><clipPath id="_clip1"><rect x="0" y="0" width="100" height="100"/></clipPath><g clip-path="url(#_clip1)"><path id="lightbulb-on" d="M50,22.732c15.062,0 27.273,12.21 27.273,27.271c0,10.094 -5.485,18.908 -13.637,23.623l0,8.193c0,2.511 -2.035,4.545 -4.545,4.545l-18.182,0c-2.51,0 -4.545,-2.034 -4.545,-4.545l0,-8.193c-8.152,-4.715 -13.637,-13.529 -13.637,-23.623c0,-15.061 12.211,-27.271 27.273,-27.271Zm9.091,68.178l0,4.545c0,2.51 -2.035,4.545 -4.546,4.545l-9.09,0c-2.511,0 -4.546,-2.035 -4.546,-4.545l0,-4.545l18.182,0Zm27.273,-45.452l13.636,0l0,9.09l-13.636,0l0,-9.09Zm-86.364,0l13.636,0l0,9.09l-13.636,0l0,-9.09Zm54.51,-45.458l0,13.636l-9.09,0l0,-13.636l9.09,0Zm-36.67,11.44l9.642,9.642l-6.428,6.428l-9.642,-9.642l6.428,-6.428Zm54.669,9.622l9.642,-9.642l6.429,6.428l-9.643,9.641l-6.428,-6.427Z" style="fill:#5d5d5d;fill-rule:nonzero;"/></g></svg>