<?xml version="1.0" encoding="UTF-8" standalone="no"?><!DOCTYPE svg PUBLIC "-//W3C//DTD SVG 1.1//EN" "http://www.w3.org/Graphics/SVG/1.1/DTD/svg11.dtd"><svg width="100%" height="100%" viewBox="0 0 101 101" version="1.1" xmlns="http://www.w3.org/2000/svg" xmlns:xlink="http://www.w3.org/1999/xlink" xml:space="preserve" xmlns:serif="http://www.serif.com/" style="fill-rule:evenodd;clip-rule:evenodd;stroke-linejoin:round;stroke-miterlimit:2;"><rect id="insta_social" x="0.946" y="0.471" width="100" height="100" style="fill:none;"/><circle cx="50.946" cy="50.471" r="50" style="fill:#bb3c5b;"/><path id="instagram" d="M41.601,28.75l18.69,0c7.127,0 12.905,5.778 12.905,12.905l0,18.69c0,7.127 -5.778,12.905 -12.905,12.905l-18.69,0c-7.127,0 -12.905,-5.778 -12.905,-12.905l0,-18.69c0,-7.127 5.778,-12.905 12.905,-12.905Zm-0.445,4.45c-4.424,0 -8.01,3.586 -8.01,8.01l0,19.58c0,4.424 3.586,8.01 8.01,8.01l19.58,0c4.424,0 8.01,-3.586 8.01,-8.01l0,-19.58c0,-4.424 -3.586,-8.01 -8.01,-8.01l-19.58,0Zm21.471,3.338c1.536,0 2.781,1.245 2.781,2.781c0,1.536 -1.245,2.781 -2.781,2.781c-1.536,0 -2.781,-1.245 -2.781,-2.781c0,-1.536 1.245,-2.781 2.781,-2.781Zm-11.681,3.337c6.144,0 11.125,4.981 11.125,11.125c0,6.144 -4.981,11.125 -11.125,11.125c-6.144,0 -11.125,-4.981 -11.125,-11.125c0,-6.144 4.981,-11.125 11.125,-11.125Zm0,4.45c-3.687,0 -6.675,2.989 -6.675,6.675c0,3.687 2.988,6.675 6.675,6.675c3.687,0 6.675,-2.988 6.675,-6.675c0,-3.686 -2.988,-6.675 -6.675,-6.675Z" style="fill:#fff;fill-rule:nonzero;"/></svg>