<?xml version="1.0" encoding="UTF-8" standalone="no"?><!DOCTYPE svg PUBLIC "-//W3C//DTD SVG 1.1//EN" "http://www.w3.org/Graphics/SVG/1.1/DTD/svg11.dtd"><svg width="100%" height="100%" viewBox="0 0 101 101" version="1.1" xmlns="http://www.w3.org/2000/svg" xmlns:xlink="http://www.w3.org/1999/xlink" xml:space="preserve" xmlns:serif="http://www.serif.com/" style="fill-rule:evenodd;clip-rule:evenodd;stroke-linejoin:round;stroke-miterlimit:2;"><rect id="insta_social_white" x="0.946" y="0.932" width="100" height="100" style="fill:none;"/><clipPath id="_clip1"><rect x="0.946" y="0.932" width="100" height="100"/></clipPath><g clip-path="url(#_clip1)"><path id="instagram" d="M29.95,1.471l41.992,0c16.012,0 28.994,12.981 28.994,28.994l0,41.991c0,16.013 -12.982,28.994 -28.994,28.994l-41.992,0c-16.013,0 -28.994,-12.981 -28.994,-28.994l0,-41.991c0,-16.013 12.981,-28.994 28.994,-28.994Zm-0.999,9.998c-9.94,0 -17.997,8.057 -17.997,17.996l0,43.991c0,9.939 8.057,17.996 17.997,17.996l43.99,0c9.939,0 17.997,-8.057 17.997,-17.996l0,-43.991c0,-9.939 -8.058,-17.996 -17.997,-17.996l-43.99,0Zm48.24,7.498c3.451,0 6.248,2.798 6.248,6.249c0,3.451 -2.797,6.249 -6.248,6.249c-3.452,0 -6.249,-2.798 -6.249,-6.249c0,-3.451 2.797,-6.249 6.249,-6.249Zm-26.245,7.499c13.804,0 24.995,11.19 24.995,24.995c0,13.804 -11.191,24.994 -24.995,24.994c-13.804,0 -24.995,-11.19 -24.995,-24.994c0,-13.805 11.191,-24.995 24.995,-24.995Zm0,9.998c-8.283,0 -14.997,6.714 -14.997,14.997c0,8.282 6.714,14.997 14.997,14.997c8.283,0 14.997,-6.715 14.997,-14.997c0,-8.283 -6.714,-14.997 -14.997,-14.997Z" style="fill:#fff;fill-rule:nonzero;"/></g></svg>