<?xml version="1.0" encoding="UTF-8" standalone="no"?><!DOCTYPE svg PUBLIC "-//W3C//DTD SVG 1.1//EN" "http://www.w3.org/Graphics/SVG/1.1/DTD/svg11.dtd"><svg width="100%" height="100%" viewBox="0 0 101 100" version="1.1" xmlns="http://www.w3.org/2000/svg" xmlns:xlink="http://www.w3.org/1999/xlink" xml:space="preserve" xmlns:serif="http://www.serif.com/" style="fill-rule:evenodd;clip-rule:evenodd;stroke-linejoin:round;stroke-miterlimit:2;"><rect id="leads_investigation" x="0.214" y="0" width="100" height="100" style="fill:none;"/><path id="magnifying-glass" d="M94.053,81.764l-21.957,-21.957c3.312,-5.433 5.218,-11.824 5.218,-18.651c0,-19.853 -17.204,-37.051 -37.058,-37.051c-19.853,0 -35.942,16.088 -35.942,35.941c0,19.848 17.204,37.052 37.052,37.052c6.606,0 12.782,-1.795 18.099,-4.904l22.073,22.085c2.161,2.155 5.665,2.155 7.82,0l5.479,-5.479c2.156,-2.156 1.371,-4.881 -0.784,-7.036Zm-78.676,-41.718c0,-13.747 11.138,-24.885 24.879,-24.885c13.741,0 25.995,12.242 25.995,25.995c0,13.741 -11.144,24.885 -24.885,24.885c-13.741,0 -25.989,-12.253 -25.989,-25.995Z" style="fill:#5d5d5d;fill-rule:nonzero;"/><path id="users" d="M46.803,48.382c0,-2.246 -2.187,-3.389 -4.317,-4.307c-2.123,-0.914 -2.801,-1.684 -2.801,-3.334c0,-0.989 0.648,-0.667 0.932,-2.481c0.12,-0.752 0.692,-0.012 0.802,-1.729c0,-0.684 -0.313,-0.854 -0.313,-0.854c0,0 0.159,-1.013 0.221,-1.793c0.064,-0.817 -0.398,-2.56 -2.301,-3.095c-0.332,-0.341 -0.557,-0.882 0.467,-1.424c-2.24,-0.104 -2.761,1.068 -3.954,1.93c-1.015,0.756 -1.289,1.953 -1.24,2.59c0.065,0.78 0.223,1.793 0.223,1.793c0,0 -0.314,0.17 -0.314,0.854c0.11,1.718 0.684,0.977 0.803,1.729c0.284,1.814 0.933,1.492 0.933,2.481c0,1.65 -0.212,2.21 -2.336,3.124c-2.131,0.917 -2.794,2.387 -2.783,4.516c0.003,0.637 -0.011,0.871 -0.011,0.871l16,0c0,0 -0.011,-0.234 -0.011,-0.871Zm2.539,-5.764c-1.135,-0.457 -1.605,-1.002 -1.605,-2.066c0,-0.641 0.418,-0.432 0.602,-1.603c0.077,-0.484 0.447,-0.008 0.518,-1.115c0,-0.441 -0.202,-0.551 -0.202,-0.551c0,0 0.103,-0.656 0.143,-1.159c0.05,-0.627 -0.364,-2.247 -2.268,-2.247c-1.904,0 -2.318,1.62 -2.269,2.247c0.042,0.502 0.144,1.159 0.144,1.159c0,0 -0.202,0.109 -0.202,0.551c0.071,1.107 0.441,0.631 0.518,1.115c0.184,1.172 0.602,0.963 0.602,1.603c0,1.064 -0.438,1.562 -1.809,2.152c-0.069,0.029 -0.12,0.068 -0.183,0.102c1.64,0.712 4.226,1.941 4.838,4.447l2.645,0l0,-2.318c0,-1 -0.273,-1.834 -1.472,-2.317Z" style="fill:#5d5d5d;fill-rule:nonzero;"/></svg>