<?xml version="1.0" encoding="UTF-8" standalone="no"?><!DOCTYPE svg PUBLIC "-//W3C//DTD SVG 1.1//EN" "http://www.w3.org/Graphics/SVG/1.1/DTD/svg11.dtd"><svg width="100%" height="100%" viewBox="0 0 101 101" version="1.1" xmlns="http://www.w3.org/2000/svg" xmlns:xlink="http://www.w3.org/1999/xlink" xml:space="preserve" xmlns:serif="http://www.serif.com/" style="fill-rule:evenodd;clip-rule:evenodd;stroke-linejoin:round;stroke-miterlimit:2;"><rect id="likedin_social_white" x="0.946" y="0.932" width="100" height="100" style="fill:none;"/><clipPath id="_clip1"><rect x="0.946" y="0.932" width="100" height="100"/></clipPath><g clip-path="url(#_clip1)"><path id="linkedin-box" d="M89.835,1.471c6.13,0 11.111,4.972 11.111,11.111l0,77.778c0,6.13 -4.981,11.111 -11.111,11.111l-77.778,0c-6.139,0 -11.111,-4.981 -11.111,-11.111l0,-77.778c0,-6.139 4.918,-11.111 11.057,-11.111l77.832,0Zm-2.817,86.064l0,-29.425c0,-9.979 -8.09,-18.068 -18.069,-18.068c-4.718,0 -10.231,2.901 -12.905,7.227l0,-6.195l-15.487,0l0,46.461l15.487,0l0,-27.36c0,-4.275 3.469,-7.744 7.743,-7.744c4.275,0 7.743,3.469 7.743,7.744l0,27.36l15.488,0Zm-64.53,-55.175c5.168,0 9.354,-4.182 9.354,-9.354c0,-5.173 -4.186,-9.36 -9.354,-9.36c-5.167,0 -9.359,4.187 -9.359,9.36c0,5.172 4.192,9.354 9.359,9.354Zm7.744,55.175l0,-46.461l-15.487,0l0,46.461l15.487,0Z" style="fill:#fff;fill-rule:nonzero;"/></g></svg>