<?xml version="1.0" encoding="UTF-8" standalone="no"?><!DOCTYPE svg PUBLIC "-//W3C//DTD SVG 1.1//EN" "http://www.w3.org/Graphics/SVG/1.1/DTD/svg11.dtd"><svg width="100%" height="100%" viewBox="0 0 100 100" version="1.1" xmlns="http://www.w3.org/2000/svg" xmlns:xlink="http://www.w3.org/1999/xlink" xml:space="preserve" xmlns:serif="http://www.serif.com/" style="fill-rule:evenodd;clip-rule:evenodd;stroke-linejoin:round;stroke-miterlimit:2;"><rect id="likedin_social" x="0" y="0" width="100" height="100" style="fill:none;"/><circle cx="50" cy="50" r="50" style="fill:#bb3c5b;"/><path id="linkedin-box" d="M67.306,27.221c2.728,0 4.944,2.213 4.944,4.945l0,34.611c0,2.728 -2.216,4.944 -4.944,4.944l-34.612,0c-2.731,0 -4.944,-2.216 -4.944,-4.944l0,-34.611c0,-2.732 2.188,-4.945 4.92,-4.945l34.636,0Zm-1.254,38.299l0,-13.095c0,-4.44 -3.6,-8.04 -8.041,-8.04c-2.099,0 -4.553,1.291 -5.742,3.216l0,-2.757l-6.892,0l0,20.676l6.892,0l0,-12.176c0,-1.902 1.543,-3.446 3.445,-3.446c1.902,0 3.446,1.544 3.446,3.446l0,12.176l6.892,0Zm-28.716,-24.553c2.3,0 4.163,-1.861 4.163,-4.163c0,-2.302 -1.863,-4.165 -4.163,-4.165c-2.299,0 -4.165,1.863 -4.165,4.165c0,2.302 1.866,4.163 4.165,4.163Zm3.446,24.553l0,-20.676l-6.892,0l0,20.676l6.892,0Z" style="fill:#fff;fill-rule:nonzero;"/></svg>