<?xml version="1.0" encoding="UTF-8" standalone="no"?><!DOCTYPE svg PUBLIC "-//W3C//DTD SVG 1.1//EN" "http://www.w3.org/Graphics/SVG/1.1/DTD/svg11.dtd"><svg width="100%" height="100%" viewBox="0 0 100 100" version="1.1" xmlns="http://www.w3.org/2000/svg" xmlns:xlink="http://www.w3.org/1999/xlink" xml:space="preserve" xmlns:serif="http://www.serif.com/" style="fill-rule:evenodd;clip-rule:evenodd;stroke-linejoin:round;stroke-miterlimit:2;"><rect id="location_blue" x="0" y="0" width="100" height="100" style="fill:none;"/><path id="map-marker" d="M50,47.5c-6.9,0 -12.5,-5.595 -12.5,-12.5c0,-6.905 5.6,-12.5 12.5,-12.5c6.905,0 12.5,5.595 12.5,12.5c0,6.905 -5.595,12.5 -12.5,12.5Zm0,-47.5c-19.325,0 -35,15.67 -35,35c0,26.25 35,65 35,65c0,0 35,-38.75 35,-65c0,-19.33 -15.675,-35 -35,-35Z" style="fill:url(#_Linear1);fill-rule:nonzero;"/><defs><linearGradient id="_Linear1" x1="0" y1="0" x2="1" y2="0" gradientUnits="userSpaceOnUse" gradientTransform="matrix(69.9994,0,0,99.9991,15.0003,50)"><stop offset="0" style="stop-color:#00e3ff;stop-opacity:1"/><stop offset="1" style="stop-color:#00afff;stop-opacity:1"/></linearGradient></defs></svg>