<?xml version="1.0" encoding="UTF-8" standalone="no"?><!DOCTYPE svg PUBLIC "-//W3C//DTD SVG 1.1//EN" "http://www.w3.org/Graphics/SVG/1.1/DTD/svg11.dtd"><svg width="100%" height="100%" viewBox="0 0 100 100" version="1.1" xmlns="http://www.w3.org/2000/svg" xmlns:xlink="http://www.w3.org/1999/xlink" xml:space="preserve" xmlns:serif="http://www.serif.com/" style="fill-rule:evenodd;clip-rule:evenodd;stroke-linejoin:round;stroke-miterlimit:2;"><rect id="logo_design" x="0" y="0" width="100" height="100" style="fill:none;"/><clipPath id="_clip1"><rect x="0" y="0" width="100" height="100"/></clipPath><g clip-path="url(#_clip1)"><path id="brush" d="M12.308,67.546c-7.891,7.327 -1.224,14.851 -11.703,25.994c-4.73,5.037 19.469,3.501 31.454,-7.637c5.089,-4.732 3.652,-11.616 -1.802,-16.688c-5.453,-5.062 -12.865,-6.401 -17.949,-1.669Zm87.38,-63.54c-4.042,-3.762 -48.852,30.179 -62.186,42.573c-6.62,6.155 -8.828,9.454 -10.854,11.916c-0.886,1.079 0.286,1.404 0.802,1.655c2.625,1.27 4.458,2.442 6.828,4.643c2.37,2.201 3.641,3.905 4.995,6.347c0.276,0.483 0.631,1.566 1.782,0.749c2.656,-1.886 6.203,-3.944 12.823,-10.09c13.34,-12.389 49.862,-54.036 45.81,-57.793Z" style="fill:#5d5d5d;fill-rule:nonzero;"/></g></svg>