<?xml version="1.0" encoding="UTF-8" standalone="no"?><!DOCTYPE svg PUBLIC "-//W3C//DTD SVG 1.1//EN" "http://www.w3.org/Graphics/SVG/1.1/DTD/svg11.dtd"><svg width="100%" height="100%" viewBox="0 0 100 100" version="1.1" xmlns="http://www.w3.org/2000/svg" xmlns:xlink="http://www.w3.org/1999/xlink" xml:space="preserve" xmlns:serif="http://www.serif.com/" style="fill-rule:evenodd;clip-rule:evenodd;stroke-linejoin:round;stroke-miterlimit:2;"><rect id="meetings" x="0" y="0" width="100" height="100" style="fill:none;"/><clipPath id="_clip1"><rect id="meetings1" serif:id="meetings" x="0" y="0" width="100" height="100"/></clipPath><g clip-path="url(#_clip1)"><g><path d="M50,24.271c6.562,0 11.901,-5.339 11.901,-11.901c0,-6.562 -5.339,-11.901 -11.901,-11.901c-6.562,0 -11.901,5.339 -11.901,11.901c0,6.562 5.339,11.901 11.901,11.901Z" style="fill:#5d5d5d;fill-rule:nonzero;"/><path d="M52.502,28.12c-0.264,-0.288 -0.651,-0.433 -1.042,-0.433l-2.92,0c-0.391,0 -0.778,0.145 -1.042,0.433c-0.41,0.447 -0.469,1.091 -0.179,1.595l1.56,2.353l-0.73,6.162l1.438,3.827c0.141,0.385 0.685,0.385 0.825,0l1.439,-3.827l-0.731,-6.162l1.56,-2.353c0.292,-0.504 0.232,-1.149 -0.178,-1.595Z" style="fill:#5d5d5d;fill-rule:nonzero;"/><path d="M31.673,55.611l36.653,0c0.935,0 1.696,-0.76 1.696,-1.695l0,-15.271c0,-4.449 -2.885,-8.4 -7.178,-9.83l-3.346,-1.027c-0.613,-0.19 -1.265,0.136 -1.485,0.738l-8.013,21.985l-8.013,-21.985c-0.178,-0.487 -0.637,-0.792 -1.13,-0.792c-0.117,0 -0.236,0.017 -0.353,0.053l-3.322,1.019c-4.32,1.44 -7.204,5.39 -7.204,9.839l0,15.271c0,0.935 0.761,1.695 1.695,1.695Z" style="fill:#5d5d5d;fill-rule:nonzero;"/><path d="M11.901,30.354c6.562,0 11.901,-5.339 11.901,-11.901c0,-6.562 -5.339,-11.901 -11.901,-11.901c-6.562,0 -11.901,5.339 -11.901,11.901c0,6.562 5.339,11.901 11.901,11.901Z" style="fill:#5d5d5d;fill-rule:nonzero;"/><path d="M32.159,63.069l-9.479,0l0,-18.722c0,-5.953 -4.826,-10.779 -10.779,-10.779c-5.953,0 -10.779,4.826 -10.779,10.778l0,25.433c0,5.716 4.634,10.349 10.349,10.349l12.299,0l0,16.947c0,1.616 1.309,2.925 2.925,2.925l11.355,0c1.615,0 2.925,-1.309 2.925,-2.925l0,-25.19c0,-4.869 -3.947,-8.816 -8.816,-8.816Z" style="fill:#5d5d5d;fill-rule:nonzero;"/><path d="M88.099,30.354c6.563,0 11.901,-5.339 11.901,-11.901c0,-6.562 -5.339,-11.901 -11.901,-11.901c-6.562,0 -11.901,5.339 -11.901,11.901c0,6.562 5.339,11.901 11.901,11.901Z" style="fill:#5d5d5d;fill-rule:nonzero;"/><path d="M88.099,33.568c-5.953,0 -10.779,4.826 -10.779,10.778l0,18.723l-9.478,0c-4.869,0 -8.816,3.947 -8.816,8.816l0,25.19c0,1.615 1.309,2.925 2.925,2.925l11.355,0c1.615,0 2.925,-1.31 2.925,-2.925l0,-16.947l12.298,0c5.716,0 10.349,-4.634 10.349,-10.349l0,-25.433c0,-5.952 -4.826,-10.778 -10.779,-10.778Z" style="fill:#5d5d5d;fill-rule:nonzero;"/></g></g></svg>