<?xml version="1.0" encoding="UTF-8" standalone="no"?><!DOCTYPE svg PUBLIC "-//W3C//DTD SVG 1.1//EN" "http://www.w3.org/Graphics/SVG/1.1/DTD/svg11.dtd"><svg width="100%" height="100%" viewBox="0 0 101 100" version="1.1" xmlns="http://www.w3.org/2000/svg" xmlns:xlink="http://www.w3.org/1999/xlink" xml:space="preserve" xmlns:serif="http://www.serif.com/" style="fill-rule:evenodd;clip-rule:evenodd;stroke-linejoin:round;stroke-miterlimit:2;"><rect id="personalised_report" x="0.435" y="0" width="100" height="100" style="fill:none;"/><clipPath id="_clip1"><rect x="0.435" y="0" width="100" height="100"/></clipPath><g clip-path="url(#_clip1)"><g><path d="M64.351,0l-50.152,0c-1.944,0 -3.519,1.576 -3.519,3.519c0,15.486 0,77.476 0,92.962c0,0.933 0.371,1.828 1.031,2.488c0.66,0.66 1.555,1.031 2.488,1.031c13.151,0 59.322,0 72.472,0c1.944,0 3.52,-1.576 3.52,-3.519c0,-14.727 0,-70.641 0,-70.641l-25.84,-25.84Zm12.523,23.558l-10.238,0l0,-10.238l10.238,10.238Zm-58.393,68.641l0,-84.398l40.354,0l0,19.657c0,2.155 1.746,3.901 3.9,3.901l19.655,0l0,60.84l-63.909,0Z" style="fill:#5d5d5d;fill-rule:nonzero;"/><rect x="28.072" y="77.49" width="44.728" height="5.201" style="fill:#5d5d5d;"/><rect x="28.072" y="28.656" width="26.553" height="5.201" style="fill:#5d5d5d;"/><path d="M63.491,45.211l2.882,0l-11.139,11.139l-8.71,-8.71l-19.255,19.257l3.676,3.678l15.579,-15.58l8.71,8.709l14.816,-14.816l0,2.876l5.201,0l0,-11.753l-11.76,0l0,5.2Z" style="fill:#5d5d5d;fill-rule:nonzero;"/><rect x="28.072" y="17.309" width="26.553" height="5.201" style="fill:#5d5d5d;"/></g></g></svg>