<?xml version="1.0" encoding="UTF-8" standalone="no"?><!DOCTYPE svg PUBLIC "-//W3C//DTD SVG 1.1//EN" "http://www.w3.org/Graphics/SVG/1.1/DTD/svg11.dtd"><svg width="100%" height="100%" viewBox="0 0 100 100" version="1.1" xmlns="http://www.w3.org/2000/svg" xmlns:xlink="http://www.w3.org/1999/xlink" xml:space="preserve" xmlns:serif="http://www.serif.com/" style="fill-rule:evenodd;clip-rule:evenodd;stroke-linejoin:round;stroke-miterlimit:2;"><rect id="photography" x="0" y="0" width="100" height="100" style="fill:none;"/><g id="photography1" serif:id="photography"><path id="camera" d="M50,39.501c-8.191,0 -14.831,6.644 -14.831,14.831c0,8.186 6.64,14.83 14.831,14.83c8.186,0 14.831,-6.644 14.831,-14.83c0,-8.187 -6.645,-14.831 -14.831,-14.831Zm39.548,-14.83l-11.864,0c-1.632,0 -3.392,-1.266 -3.901,-2.818l-3.07,-9.2c-0.519,-1.547 -2.269,-2.813 -3.905,-2.813l-33.616,0c-1.631,0 -3.391,1.266 -3.9,2.808l-3.075,9.205c-0.514,1.552 -2.269,2.818 -3.901,2.818l-11.864,0c-5.438,0 -9.887,4.449 -9.887,9.887l0,44.492c0,5.437 4.449,9.887 9.887,9.887l79.096,0c5.438,0 9.887,-4.45 9.887,-9.887l0,-44.492c0,-5.438 -4.449,-9.887 -9.887,-9.887Zm-39.548,54.379c-13.654,0 -24.718,-11.064 -24.718,-24.718c0,-13.654 11.064,-24.718 24.718,-24.718c13.649,0 24.718,11.064 24.718,24.718c0,13.654 -11.069,24.718 -24.718,24.718Zm37.076,-38.56c-1.913,0 -3.46,-1.552 -3.46,-3.465c0,-1.904 1.547,-3.461 3.46,-3.461c1.914,0 3.461,1.552 3.461,3.461c0,1.913 -1.547,3.465 -3.461,3.465Z" style="fill:#5d5d5d;fill-rule:nonzero;"/></g></svg>