<?xml version="1.0" encoding="UTF-8" standalone="no"?><!DOCTYPE svg PUBLIC "-//W3C//DTD SVG 1.1//EN" "http://www.w3.org/Graphics/SVG/1.1/DTD/svg11.dtd"><svg width="100%" height="100%" viewBox="0 0 101 101" version="1.1" xmlns="http://www.w3.org/2000/svg" xmlns:xlink="http://www.w3.org/1999/xlink" xml:space="preserve" xmlns:serif="http://www.serif.com/" style="fill-rule:evenodd;clip-rule:evenodd;stroke-linejoin:round;stroke-miterlimit:2;"><rect id="profile" x="0.529" y="0.79" width="100" height="100" style="fill:none;"/><clipPath id="_clip1"><rect x="0.529" y="0.79" width="100" height="100"/></clipPath><g clip-path="url(#_clip1)"><rect x="0.529" y="0.79" width="100" height="100" style="fill:#cb2c5a;"/><path id="user" d="M40.275,12.854c-5.138,3.724 -6.518,9.619 -6.265,12.757c0.323,3.837 1.122,8.831 1.122,8.831c0,0 -1.582,0.837 -1.582,4.206c0.551,8.457 3.453,4.807 4.05,8.516c1.436,8.934 4.718,7.343 4.718,12.219c0,8.122 -3.439,11.919 -14.174,16.421c-10.77,4.521 -21.874,10.21 -21.874,20.06l0,4.926l91.017,0l0,-4.926c0,-9.85 -11.109,-15.539 -21.884,-20.055c-10.735,-4.502 -14.164,-8.294 -14.164,-16.421c0,-4.876 3.272,-3.285 4.713,-12.219c0.602,-3.709 3.499,-0.06 4.06,-8.516c0,-3.369 -1.587,-4.206 -1.587,-4.206c0,0 0.799,-4.995 1.117,-8.831c0.329,-4.024 -2.012,-12.614 -11.63,-15.249c-1.684,-1.674 -2.822,-4.339 2.356,-7.013c-11.326,-0.517 -13.961,5.255 -19.993,9.5Z" style="fill:#7f1231;fill-rule:nonzero;"/></g></svg>