<?xml version="1.0" encoding="UTF-8" standalone="no"?><!DOCTYPE svg PUBLIC "-//W3C//DTD SVG 1.1//EN" "http://www.w3.org/Graphics/SVG/1.1/DTD/svg11.dtd"><svg width="100%" height="100%" viewBox="0 0 100 100" version="1.1" xmlns="http://www.w3.org/2000/svg" xmlns:xlink="http://www.w3.org/1999/xlink" xml:space="preserve" xmlns:serif="http://www.serif.com/" style="fill-rule:evenodd;clip-rule:evenodd;stroke-linejoin:round;stroke-miterlimit:2;"><rect id="reach_analysis" x="0" y="0" width="100" height="100" style="fill:none;"/><g id="reach_analysis1" serif:id="reach_analysis"><path id="bar-graph" d="M81.889,9.018l-9.111,0c-2.515,0 -4.556,2.036 -4.556,4.556l0,77.408l18.223,0l0,-77.408c0,-2.52 -2.037,-4.556 -4.556,-4.556Zm-27.333,27.333l-9.112,0c-2.514,0 -4.555,2.037 -4.555,4.556l0,50.075l18.222,0l0,-50.075c0,-2.519 -2.036,-4.556 -4.555,-4.556Zm-27.334,27.334l-9.111,0c-2.515,0 -4.556,2.036 -4.556,4.556l0,22.741l18.223,0l0,-22.741c0,-2.52 -2.037,-4.556 -4.556,-4.556Z" style="fill:#5d5d5d;fill-rule:nonzero;"/></g></svg>