<?xml version="1.0" encoding="UTF-8" standalone="no"?><!DOCTYPE svg PUBLIC "-//W3C//DTD SVG 1.1//EN" "http://www.w3.org/Graphics/SVG/1.1/DTD/svg11.dtd"><svg width="100%" height="100%" viewBox="0 0 101 100" version="1.1" xmlns="http://www.w3.org/2000/svg" xmlns:xlink="http://www.w3.org/1999/xlink" xml:space="preserve" xmlns:serif="http://www.serif.com/" style="fill-rule:evenodd;clip-rule:evenodd;stroke-linejoin:round;stroke-miterlimit:2;"><rect id="relaunch_event" x="0.214" y="0" width="100" height="100" style="fill:none;"/><path id="rocket" d="M63.073,64.602c0,0 40.111,-28.946 35.661,-62.073c-0.096,-0.722 -0.335,-1.211 -0.636,-1.523c-0.307,-0.313 -0.778,-0.557 -1.494,-0.654c-32.372,-4.551 -60.653,36.492 -60.653,36.492c-24.536,-2.938 -22.752,1.955 -33.946,28.843c-2.142,5.125 1.33,6.893 5.137,5.449c3.807,-1.432 12.206,-4.608 12.206,-4.608l14.717,15.047c0,0 -3.103,8.603 -4.506,12.495c-1.404,3.892 0.312,7.449 5.33,5.262c26.274,-11.456 31.059,-9.626 28.184,-34.73Zm5.733,-33.617c-3.398,-3.483 -3.398,-9.114 0,-12.597c3.398,-3.472 8.904,-3.472 12.308,0c3.403,3.472 3.398,9.109 0,12.597c-3.404,3.472 -8.916,3.472 -12.308,0Z" style="fill:#5d5d5d;fill-rule:nonzero;"/></svg>