<?xml version="1.0" encoding="UTF-8" standalone="no"?><!DOCTYPE svg PUBLIC "-//W3C//DTD SVG 1.1//EN" "http://www.w3.org/Graphics/SVG/1.1/DTD/svg11.dtd"><svg width="100%" height="100%" viewBox="0 0 100 100" version="1.1" xmlns="http://www.w3.org/2000/svg" xmlns:xlink="http://www.w3.org/1999/xlink" xml:space="preserve" xmlns:serif="http://www.serif.com/" style="fill-rule:evenodd;clip-rule:evenodd;stroke-linejoin:round;stroke-miterlimit:2;"><rect id="social_media" x="0" y="0" width="100" height="100" style="fill:none;"/><clipPath id="_clip1"><rect id="social_media1" serif:id="social_media" x="0" y="0" width="100" height="100"/></clipPath><g clip-path="url(#_clip1)"><path id="tablet" d="M73.661,-0.047l-47.322,0c-4.338,0 -7.887,4.444 -7.887,9.887l0,79.097c0,5.437 3.549,9.887 7.887,9.887l47.322,0c4.342,0 7.887,-4.45 7.887,-9.887l0,-79.097c0,-5.443 -3.545,-9.887 -7.887,-9.887Zm-23.661,93.927c-2.721,0 -4.929,-2.21 -4.929,-4.943c0,-2.734 2.208,-4.944 4.929,-4.944c2.717,0 4.929,2.21 4.929,4.944c0,2.733 -2.212,4.943 -4.929,4.943Zm23.661,-14.83l-47.322,0l0,-69.21l47.322,0l0,69.21Z" style="fill:#5d5d5d;fill-rule:nonzero;"/><path id="twitter" d="M57.316,40.691c0.008,0.162 0.011,0.326 0.011,0.488c0,4.99 -3.797,10.742 -10.74,10.742c-2.133,0 -4.116,-0.625 -5.787,-1.697c0.296,0.035 0.596,0.053 0.9,0.053c1.77,0 3.397,-0.604 4.688,-1.615c-1.651,-0.031 -3.046,-1.121 -3.526,-2.621c0.23,0.043 0.467,0.066 0.71,0.066c0.345,0 0.679,-0.045 0.995,-0.131c-1.727,-0.348 -3.028,-1.873 -3.028,-3.703l0,-0.047c0.509,0.283 1.092,0.453 1.71,0.473c-1.013,-0.678 -1.68,-1.832 -1.68,-3.143c0,-0.691 0.186,-1.34 0.512,-1.898c1.861,2.285 4.644,3.787 7.781,3.945c-0.064,-0.277 -0.097,-0.564 -0.097,-0.861c0,-2.084 1.689,-3.773 3.774,-3.773c1.086,0 2.067,0.457 2.756,1.191c0.859,-0.17 1.667,-0.484 2.397,-0.916c-0.282,0.881 -0.881,1.621 -1.66,2.088c0.764,-0.092 1.49,-0.293 2.168,-0.594c-0.506,0.758 -1.146,1.422 -1.884,1.953Z" style="fill:#5d5d5d;fill-rule:nonzero;"/></g></svg>