<?xml version="1.0" encoding="UTF-8" standalone="no"?><!DOCTYPE svg PUBLIC "-//W3C//DTD SVG 1.1//EN" "http://www.w3.org/Graphics/SVG/1.1/DTD/svg11.dtd"><svg width="100%" height="100%" viewBox="0 0 100 100" version="1.1" xmlns="http://www.w3.org/2000/svg" xmlns:xlink="http://www.w3.org/1999/xlink" xml:space="preserve" xmlns:serif="http://www.serif.com/" style="fill-rule:evenodd;clip-rule:evenodd;stroke-linejoin:round;stroke-miterlimit:2;"><rect id="support" x="0" y="0" width="100" height="100" style="fill:none;"/><clipPath id="_clip1"><rect x="0" y="0" width="100" height="100"/></clipPath><g clip-path="url(#_clip1)"><path id="clock" d="M50,89.999c22.1,0 40,-17.909 40,-40c0,-22.09 -17.9,-39.999 -40,-39.999c-22.1,0 -40,17.909 -40,39.999c0,22.091 17.9,40 40,40Zm-0.025,-89.999c27.63,0 50.025,22.385 50.025,50c0,27.615 -22.395,50 -50.025,50c-27.635,0 -49.975,-22.385 -49.975,-50c0,-27.615 22.34,-50 49.975,-50Zm2.525,25l0,26.25l22.5,13.345l-3.765,6.155l-26.235,-15.75l0,-30l7.5,0Z" style="fill:#5d5d5d;fill-rule:nonzero;"/></g></svg>